HIERARCHY
ROOT Hips
{
	OFFSET -3.958830 18.904000 13.208200
	CHANNELS 6 Xposition Yposition Zposition Zrotation Yrotation Xrotation 
	JOINT LHipJoint
	{
		OFFSET 0.000000 0.000000 0.000000
		CHANNELS 3 Zrotation Yrotation Xrotation
		JOINT LeftUpLeg
		{
			OFFSET 1.800000 -1.400000 0.085000
			CHANNELS 3 Zrotation Yrotation Xrotation
			JOINT LeftLeg
			{
				OFFSET 2.215000 -6.000000 0.000000
				CHANNELS 3 Zrotation Yrotation Xrotation
				JOINT LeftFoot
				{
					OFFSET 2.500000 -6.900000 0.000000
					CHANNELS 3 Zrotation Yrotation Xrotation
					JOINT LeftToeBase
					{
						OFFSET 0.200000 -0.500000 1.950000
						CHANNELS 3 Zrotation Yrotation Xrotation
						End Site
						{
							OFFSET 0.000000 0.000000 0.000000
						}
					}
				}
			}
		}
	}
	JOINT RHipJoint
	{
		OFFSET 0.000000 0.000000 0.000000
		CHANNELS 3 Zrotation Yrotation Xrotation
		JOINT RightUpLeg
		{
			OFFSET -1.800000 -1.400000 0.085000
			CHANNELS 3 Zrotation Yrotation Xrotation
			JOINT RightLeg
			{
				OFFSET -2.215000 -6.000000 0.000000
				CHANNELS 3 Zrotation Yrotation Xrotation
				JOINT RightFoot
				{
					OFFSET -2.500000 -6.900000 0.000000
					CHANNELS 3 Zrotation Yrotation Xrotation
					JOINT RightToeBase
					{
						OFFSET -0.200000 -0.500000 1.950000
						CHANNELS 3 Zrotation Yrotation Xrotation
						End Site
						{
							OFFSET 0.000000 0.000000 0.000000
						}
					}
				}
			}
		}
	}
	JOINT LowerBack
	{
		OFFSET 0.000000 0.000000 0.000000
		CHANNELS 3 Zrotation Yrotation Xrotation
		JOINT Spine
		{
			OFFSET -0.087000 1.940000 -0.288900
			CHANNELS 3 Zrotation Yrotation Xrotation
			JOINT Spine1
			{
				OFFSET 0.000000 1.950000 0.060000
				CHANNELS 3 Zrotation Yrotation Xrotation
				JOINT Neck
				{
					OFFSET 0.000000 0.000000 0.000000
					CHANNELS 3 Zrotation Yrotation Xrotation
					JOINT Neck1
					{
						OFFSET 0.000000 1.600000 0.340000
						CHANNELS 3 Zrotation Yrotation Xrotation
						JOINT Head
						{
							OFFSET 0.000000 1.667000 -0.240000
							CHANNELS 3 Zrotation Yrotation Xrotation
							End Site
							{
								OFFSET 0.000000 0.000000 0.000000
							}
						}
					}
				}
				JOINT LeftShoulder
				{
					OFFSET 0.000000 0.000000 0.000000
					CHANNELS 3 Zrotation Yrotation Xrotation
					JOINT LeftArm
					{
						OFFSET 2.700000 1.550000 -0.730000
						CHANNELS 3 Zrotation Yrotation Xrotation
						JOINT LeftForeArm
						{
							OFFSET 5.450000 0.000000 0.000000
							CHANNELS 3 Zrotation Yrotation Xrotation
							JOINT LeftHand
							{
								OFFSET 3.450000 0.000000 0.000000
								CHANNELS 3 Zrotation Yrotation Xrotation
								JOINT LeftHandIndex1
								{
									OFFSET 0.750000 0.000000 0.000000
									CHANNELS 3 Zrotation Yrotation Xrotation
									End Site
									{
										OFFSET 0.000000 0.000000 0.000000
									}
								}
							}
						}
					}
				}
				JOINT RightShoulder
				{
					OFFSET 0.000000 0.000000 0.000000
					CHANNELS 3 Zrotation Yrotation Xrotation
					JOINT RightArm
					{
						OFFSET -2.700000 1.550000 -0.730000
						CHANNELS 3 Zrotation Yrotation Xrotation
						JOINT RightForeArm
						{
							OFFSET -5.450000 0.000000 0.000000
							CHANNELS 3 Zrotation Yrotation Xrotation
							JOINT RightHand
							{
								OFFSET -3.450000 0.000000 0.000000
								CHANNELS 3 Zrotation Yrotation Xrotation
								JOINT RightHandIndex1
								{
									OFFSET -0.750000 0.000000 0.000000
									CHANNELS 3 Zrotation Yrotation Xrotation
									End Site
									{
										OFFSET 0.000000 0.000000 0.000000
									}
								}
							}
						}
					}
				}
			}
		}
	}
}
MOTION
Frames: 14
Frame Time: 0.016667
-0.429940 17.299200 -2.169210 -9.304832 -35.489213 -5.248564 -15.391762 15.171443 3.070923 12.771241 -0.740555 -3.191456 -7.044384 7.471337 16.118775 0.092497 5.067754 2.807854 0.527180 0.395960 0.457270 17.848109 -10.037529 2.597797 -2.870619 0.616820 -12.228559 9.214984 -7.006735 20.011162 -0.596611 -3.254287 3.262291 0.032970 -0.258580 0.111550 -1.749858 -6.337157 -7.723305 -2.307197 -2.875023 25.500264 4.025613 -1.541903 6.184772 -0.843734 -6.838147 -11.306285 -25.992987 15.612030 42.959031 1.065950 11.684920 -27.591200 -26.250633 -8.738805 5.658430 -53.026800 -20.593549 2.776068 127.936337 -62.583032 -117.872288 -3.538822 2.598644 0.773630 -0.344070 0.417820 0.116140 28.684765 11.143960 6.853201 52.855867 -5.489512 -13.713626 6.839089 22.949689 -0.148980 2.266859 -1.090279 0.012950 0.131590 -0.194240 -0.228620 
-0.463880 17.285350 -2.173370 -8.593324 -36.060705 -5.640718 -15.447243 15.208596 3.077720 12.531119 -0.672357 -3.024321 -7.232131 7.578760 16.313994 0.116530 5.107370 2.791429 0.527730 0.404440 0.453140 17.802939 -9.995785 2.565928 -3.169289 0.502257 -11.374707 8.992497 -6.755449 19.010032 -0.595835 -3.187317 3.293517 0.031260 -0.264580 0.118470 -1.543335 -6.495421 -7.725133 -4.124098 -2.205103 24.968104 4.951867 -1.026368 6.182942 -1.018110 -6.577047 -11.179173 -25.562668 15.811690 43.576826 1.127080 12.072400 -28.070510 -26.569088 -8.509789 5.660967 -52.994660 -20.217429 2.698917 128.091231 -62.855986 -118.300675 -3.531343 2.610377 0.778770 -0.347530 0.432200 0.121360 29.428924 11.050505 6.869417 52.437828 -5.549057 -13.671461 6.038702 23.157036 -0.210914 2.262193 -1.094849 0.019280 0.126250 -0.199140 -0.225040 
-0.512040 17.269780 -2.187870 -7.776479 -37.108510 -6.334150 -15.525812 15.261489 3.063017 12.386569 -0.607511 -2.838638 -7.345859 7.778528 17.057052 0.157551 5.176990 2.752700 0.562270 0.453550 0.483900 17.740370 -9.932021 2.533579 -3.499520 0.348172 -9.925839 8.820933 -6.488423 17.716592 -0.623223 -3.132543 3.314714 0.042640 -0.299820 0.127120 -1.238304 -6.711136 -7.720461 -6.676751 -1.093026 24.288407 6.711718 -0.081163 6.550789 -1.356415 -6.241917 -11.245133 -25.420913 16.300341 45.235691 1.362580 12.593750 -29.232550 -27.518830 -8.924045 5.865121 -52.655851 -19.800622 2.236821 127.767013 -63.260635 -118.319248 -3.510451 2.598944 0.792550 -0.370890 0.471870 0.125450 31.181404 11.835813 7.244961 50.877562 -5.658948 -13.136309 4.530688 22.001785 -0.352968 2.268790 -1.104045 0.044650 0.114330 -0.226560 -0.224280 
-0.563590 17.245860 -2.197900 -7.393238 -38.454964 -6.819188 -15.583394 15.256817 3.043726 12.765928 -0.622784 -2.686503 -7.841144 8.171058 18.121776 0.183745 5.357800 2.665889 0.597380 0.491730 0.521490 17.701281 -9.862743 2.533890 -3.642185 0.191981 -8.189011 8.916824 -6.282357 16.109249 -0.663086 -3.114546 3.317907 0.058040 -0.338870 0.134240 -1.012804 -6.822451 -7.724869 -8.317251 -0.127667 23.585929 8.196143 0.856692 6.949738 -1.606070 -6.048625 -11.424439 -25.746787 16.981244 47.156133 1.415720 13.032600 -30.506640 -28.863178 -9.486482 6.054915 -51.893880 -19.183933 1.575232 127.110367 -64.212116 -118.491644 -3.499761 2.565023 0.823050 -0.397540 0.508690 0.119650 33.153986 12.841136 7.717749 49.006605 -5.708092 -12.209595 2.783617 19.624344 -0.455053 2.280105 -1.093284 0.057300 0.108690 -0.241640 -0.237560 
-0.608740 17.220390 -2.203400 -7.880052 -39.777548 -6.789379 -15.610131 15.199945 3.027519 13.828599 -0.714153 -2.627045 -8.517235 8.673196 19.271118 0.206935 5.604233 2.556597 0.637880 0.531410 0.569720 17.687470 -9.800321 2.589798 -3.278218 0.058130 -6.411751 9.257018 -6.173204 14.572939 -0.719788 -3.143506 3.304196 0.079590 -0.374870 0.138080 -0.903633 -6.793935 -7.771643 -8.412042 0.397498 23.090562 8.964883 1.539889 7.458348 -1.585610 -5.867096 -11.905340 -26.210532 17.850251 49.636624 1.126340 13.512770 -31.086410 -30.895238 -10.644915 6.428643 -50.297431 -18.518243 0.598645 125.908928 -64.970127 -117.678455 -3.505948 2.475623 0.855580 -0.420180 0.546270 0.117370 35.295460 14.288120 8.421901 46.789693 -5.746692 -11.172393 1.006926 17.340473 -0.498206 2.291104 -1.084973 0.063390 0.113130 -0.260870 -0.254010 
-0.644970 17.192020 -2.206510 -8.686892 -40.983373 -6.631745 -15.618573 15.122903 3.026155 15.114832 -0.822238 -2.607540 -9.251653 9.229200 20.459162 0.233030 5.876769 2.429361 0.677350 0.571100 0.619430 17.685306 -9.755019 2.658076 -2.901159 -0.090080 -4.795255 9.741293 -6.165300 13.364043 -0.781627 -3.215774 3.263511 0.100960 -0.417650 0.146610 -0.858193 -6.695838 -7.843151 -7.803120 0.739468 23.136178 9.195319 2.123738 7.876959 -1.324628 -5.761614 -12.406557 -26.547853 18.651029 51.972154 0.481590 14.001950 -31.609570 -33.353037 -11.790527 6.767257 -48.170968 -17.797555 -0.452223 125.631748 -65.698448 -118.053302 -3.509318 2.434565 0.882010 -0.442340 0.582730 0.105570 37.354813 15.740673 9.136389 44.503568 -5.752224 -10.138910 -0.374577 15.167047 -0.460217 2.308470 -1.080803 0.076040 0.106640 -0.275200 -0.271490 
-0.686600 17.160820 -2.208340 -9.273466 -41.993692 -6.521734 -15.625647 15.055601 3.027131 16.173124 -0.871285 -2.491242 -9.816546 9.687021 21.328955 0.262230 6.092023 2.330563 0.706340 0.608140 0.652140 17.684878 -9.707453 2.724458 -2.611257 -0.280662 -3.285796 10.182355 -6.144077 12.137147 -0.839559 -3.279892 3.236446 0.117350 -0.450920 0.144040 -0.825627 -6.630943 -7.904976 -7.368355 0.947732 23.243365 9.281756 2.557296 8.054605 -1.133568 -5.795018 -12.883988 -27.350305 19.570819 53.718731 0.165160 14.318130 -32.463750 -35.410109 -12.530391 7.093814 -46.478147 -17.017090 -1.369746 125.647524 -66.095397 -118.527287 -3.504926 2.400055 0.903890 -0.466560 0.614720 0.098300 39.165702 16.759458 9.714123 42.668793 -5.809726 -9.375978 -1.563509 13.471671 -0.402263 2.327005 -1.063133 0.086450 0.114290 -0.285540 -0.280150 
-0.726000 17.133080 -2.207230 -10.036470 -42.985153 -6.111184 -15.625140 14.999007 3.032281 17.182221 -0.867832 -2.315626 -10.186965 10.032497 21.847252 0.272459 6.264978 2.253565 0.717360 0.622700 0.666410 17.688513 -9.668254 2.791043 -2.235837 -0.403361 -2.269590 10.739305 -6.190282 11.321705 -0.877742 -3.349118 3.215715 0.127010 -0.466880 0.137010 -0.821569 -6.552451 -7.970974 -6.512943 1.051764 23.333936 9.219041 2.889137 8.212522 -0.815608 -5.864189 -13.435367 -28.057632 20.346402 55.112042 -0.425200 14.546470 -32.572870 -37.071501 -13.241722 7.486413 -45.052035 -16.169841 -2.182553 125.760912 -66.392175 -119.162438 -3.512563 2.367033 0.920980 -0.475210 0.627590 0.090330 40.327874 17.736749 10.258657 41.332862 -5.933064 -8.741750 -2.528880 12.030712 -0.331456 2.336661 -1.041187 0.084090 0.126320 -0.282910 -0.290420 
-0.764020 17.110400 -2.209410 -10.583730 -43.555716 -5.571136 -15.612435 14.968370 3.033525 17.792907 -0.859747 -2.444960 -10.245247 10.177210 22.155138 0.285740 6.326856 2.228989 0.723350 0.631330 0.671930 17.696444 -9.659627 2.842242 -1.955305 -0.425892 -1.931777 11.277784 -6.263701 11.005907 -0.900386 -3.390620 3.208350 0.127730 -0.471140 0.132690 -0.861659 -6.467234 -8.013186 -5.785367 1.019860 23.460935 8.961541 3.016314 7.954938 -0.525205 -5.983656 -13.788442 -28.594989 20.947048 55.628309 -1.012090 14.781390 -32.383840 -38.128148 -13.510793 7.747913 -44.142899 -15.247514 -2.821434 125.677154 -66.961035 -119.884327 -3.514250 2.352747 0.924300 -0.479150 0.636070 0.096760 40.914625 18.220140 10.501518 40.629377 -5.936618 -8.200777 -2.959081 10.749328 -0.247805 2.359687 -1.022722 0.086320 0.134060 -0.290290 -0.288270 
-0.804390 17.104170 -2.205070 -10.756306 -44.052760 -5.230955 -15.602918 14.963186 3.033632 18.018672 -0.816434 -2.402787 -10.194849 10.208382 22.182927 0.294383 6.335367 2.227030 0.722260 0.628870 0.674290 17.700241 -9.664572 2.867246 -1.858585 -0.418013 -1.855390 11.591461 -6.322154 10.965002 -0.909053 -3.411345 3.204727 0.123860 -0.476220 0.127740 -0.877699 -6.415166 -8.037607 -5.391522 0.978141 23.444072 8.720760 3.078839 7.649275 -0.215377 -6.041560 -14.112634 -29.048283 21.497542 56.166690 -1.661380 15.023330 -31.838740 -39.046317 -13.685050 8.026166 -43.431406 -14.278550 -3.405666 125.398722 -67.496136 -120.338181 -3.519778 2.332391 0.925770 -0.482250 0.640090 0.099580 41.334643 18.559865 10.724012 40.227551 -6.218373 -7.988824 -3.252415 10.283189 -0.213449 2.372609 -1.017494 0.086360 0.136250 -0.293960 -0.288400 
-0.836240 17.115430 -2.205240 -10.790152 -44.239887 -5.056691 -15.571063 14.978064 3.039071 18.026707 -0.761761 -2.284404 -9.990114 10.074842 21.863097 0.293104 6.261674 2.249469 0.729390 0.637220 0.676760 17.719807 -9.698191 2.872161 -1.816054 -0.320314 -2.199445 11.775384 -6.446253 11.597296 -0.914373 -3.417073 3.200414 0.120830 -0.492870 0.124480 -0.970840 -6.357841 -8.035372 -4.866457 0.751573 23.983022 8.131848 2.923174 7.189038 0.013393 -6.221514 -14.316586 -29.947935 22.161662 55.990368 -2.142510 15.104720 -32.287250 -39.357126 -13.688516 8.140044 -43.140627 -13.589518 -3.979053 123.971380 -68.200408 -119.394216 -3.529684 2.261119 0.931250 -0.498710 0.649180 0.099420 41.199974 18.714615 10.744983 40.561439 -6.083595 -8.018639 -3.621939 10.187738 -0.219495 2.389412 -1.012504 0.096210 0.132080 -0.297550 -0.286410 
-0.865290 17.138280 -2.205700 -10.569326 -44.239751 -4.786653 -15.531455 15.016706 3.025339 17.567911 -0.681088 -2.264374 -9.388925 9.703190 21.223564 0.259073 6.092147 2.321412 0.704880 0.607760 0.658300 17.743407 -9.758530 2.868804 -1.858213 -0.162816 -2.956012 11.733707 -6.518973 12.352361 -0.888309 -3.388865 3.215766 0.107420 -0.480450 0.109460 -1.088092 -6.295073 -8.000001 -4.457513 0.410892 24.338705 7.420433 2.584686 6.536693 0.155541 -6.397769 -14.237877 -30.624538 22.569219 55.250999 -2.551390 15.095810 -32.171600 -39.065621 -13.290727 8.041658 -43.296855 -12.997009 -4.275640 122.016236 -68.953601 -117.565800 -3.567754 2.128130 0.931970 -0.498120 0.633250 0.093690 40.584754 18.356368 10.507138 41.371968 -5.867478 -8.324092 -3.545186 10.823939 -0.273556 2.389558 -0.995246 0.081010 0.146800 -0.281410 -0.286570 
-0.893060 17.157850 -2.202210 -10.415964 -43.874545 -4.131985 -15.468372 15.036181 3.015721 17.040955 -0.679925 -2.654415 -8.774774 9.287993 20.590068 0.226363 5.897793 2.413781 0.670790 0.562810 0.626110 17.786362 -9.846115 2.863567 -1.829461 0.051733 -4.233294 11.575992 -6.582097 13.369336 -0.844423 -3.337924 3.243326 0.083190 -0.442900 0.098960 -1.314627 -6.162853 -7.940281 -3.425620 -0.232097 24.638372 6.287204 1.935336 5.605933 0.173307 -6.842440 -13.802623 -31.765463 22.568962 52.982493 -2.694370 14.510320 -31.801340 -37.800465 -12.261931 7.540504 -44.366540 -12.863113 -4.021651 118.497620 -70.025611 -113.502950 -3.628090 1.877962 0.915900 -0.487240 0.601140 0.095220 39.127156 17.326153 9.918905 43.025577 -5.382995 -8.805978 -3.016616 11.922686 -0.355725 2.393093 -0.975974 0.068470 0.166590 -0.260940 -0.272610 
-0.911580 17.177090 -2.198170 -10.011853 -43.054643 -3.408354 -15.401750 15.063218 2.989005 16.139677 -0.695749 -3.314648 -7.860933 8.713044 19.891925 0.190291 5.607303 2.527381 0.640080 0.537120 0.568480 17.831667 -9.940911 2.853721 -2.060609 0.279563 -5.904210 11.676720 -6.713391 14.460504 -0.793432 -3.313651 3.256619 0.068460 -0.404340 0.098750 -1.566151 -6.042276 -7.857538 -2.348003 -1.103159 24.772028 5.025639 0.967456 4.728114 0.154766 -7.355200 -13.325937 -32.831523 22.549649 49.970297 -2.495320 14.006850 -30.606840 -35.941104 -11.125848 7.029387 -45.964116 -12.852421 -3.643637 114.198542 -71.041162 -108.208617 -3.685687 1.539821 0.874570 -0.467070 0.564970 0.107590 37.133084 16.047697 9.211633 44.934914 -4.870597 -9.389664 -1.650433 13.586916 -0.439594 2.390876 -0.983606 0.073760 0.162120 -0.243210 -0.243210 
